<?xml version="1.0" standalone="no"?>
<!DOCTYPE svg PUBLIC "-//W3C//DTD SVG 20010904//EN"
 "http://www.w3.org/TR/2001/REC-SVG-20010904/DTD/svg10.dtd">
<svg version="1.0" xmlns="http://www.w3.org/2000/svg"
 width="480.000000pt" height="480.000000pt" viewBox="0 0 480.000000 480.000000"
 preserveAspectRatio="xMidYMid meet">
<metadata>
Created by potrace 1.14, written by Peter Selinger 2001-2017
</metadata>
<g transform="translate(0.000000,480.000000) scale(0.100000,-0.100000)"
fill="#000000" stroke="none">
<path d="M1885 4604 c-183 -27 -271 -43 -317 -60 -24 -9 -51 -17 -60 -19 -81
-17 -284 -105 -396 -172 -54 -32 -108 -57 -125 -58 -17 -1 -33 -7 -35 -14 -3
-10 55 -93 110 -156 94 -108 176 -222 205 -285 19 -41 41 -88 49 -104 19 -40
17 -46 -7 -16 -12 14 -44 50 -72 81 -126 134 -243 263 -253 278 -10 13 -16 12
-45 -11 -19 -14 -52 -43 -75 -65 -38 -36 -168 -152 -243 -218 -49 -43 -77 -74
-199 -226 -92 -115 -123 -162 -190 -295 -43 -88 -87 -186 -95 -219 -54 -205
-66 -255 -71 -300 -4 -27 -8 -63 -11 -80 -11 -68 -17 -112 -20 -140 -1 -16 -6
-57 -11 -90 -19 -137 -6 -331 36 -520 55 -253 58 -262 124 -378 35 -62 74
-130 86 -152 12 -22 27 -46 32 -52 6 -7 7 -13 3 -13 -5 0 -1 -8 7 -17 8 -10
32 -49 52 -87 61 -112 217 -313 333 -429 107 -106 109 -107 128 -89 11 11 63
65 115 121 52 57 128 137 168 179 l72 77 -141 -214 -142 -215 29 -24 c16 -14
55 -49 87 -78 102 -93 317 -202 472 -240 33 -8 67 -17 75 -19 242 -66 318 -82
415 -90 39 -3 93 -8 120 -12 28 -3 113 -6 190 -7 124 -1 175 3 250 18 11 2 43
7 70 10 103 14 158 24 255 48 62 15 159 57 355 153 262 128 272 134 352 210
l81 78 -121 151 c-67 83 -126 156 -133 163 -17 18 -162 201 -338 428 -150 194
-154 200 -135 217 10 9 19 18 19 21 0 4 -80 72 -161 137 -67 53 -92 83 -139
160 -39 66 -41 75 -32 110 l9 38 -102 81 c-76 59 -111 94 -133 133 l-31 53 22
8 c12 4 43 10 68 12 26 2 60 6 75 9 27 4 125 18 220 31 23 3 64 8 90 11 27 2
61 7 77 9 47 8 80 13 142 20 32 4 67 8 76 10 9 2 40 6 70 10 30 3 61 8 69 10
8 2 43 7 77 10 34 3 70 8 81 10 20 4 108 15 157 20 17 2 48 6 70 10 124 18
174 25 213 30 23 3 61 7 85 10 23 3 71 10 107 15 140 20 178 25 266 35 40 4
77 11 84 15 10 6 6 36 -18 136 -17 71 -38 162 -47 202 -19 90 -37 142 -79 234
-19 40 -43 94 -53 119 -51 117 -277 381 -458 535 -217 185 -489 394 -500 382
-1 -1 -18 -28 -37 -59 -18 -31 -58 -84 -87 -118 -69 -78 -120 -179 -100 -193
10 -6 2 -7 -24 -3 -36 6 -38 5 -37 -17 1 -13 1 -27 0 -33 -7 -24 -8 -32 -9
-66 -1 -27 -10 -47 -36 -75 -20 -21 -38 -49 -41 -61 -4 -16 -14 -23 -30 -23
-30 0 -39 -21 -26 -59 10 -28 7 -33 -56 -99 -37 -38 -86 -80 -108 -92 -39 -21
-41 -25 -34 -51 7 -24 4 -32 -16 -48 -14 -11 -30 -37 -36 -58 -6 -21 -32 -65
-57 -98 -26 -33 -62 -81 -80 -107 -34 -51 -71 -65 -71 -27 0 19 16 58 29 69 3
3 28 39 56 80 27 41 52 77 55 80 3 3 19 28 36 55 17 28 98 158 180 290 83 132
162 263 176 290 14 28 46 88 69 135 24 47 46 87 49 90 8 8 96 192 110 230 8
19 17 40 21 46 9 11 -8 34 -24 34 -4 0 -25 11 -45 25 -20 14 -46 25 -57 25
-11 0 -39 9 -61 19 -33 15 -41 24 -40 42 1 23 -2 24 -64 25 -36 1 -85 7 -110
14 -76 22 -103 27 -190 35 -61 5 -165 20 -220 32 -50 10 -367 9 -445 -3z"/>
<path d="M4438 2483 c-79 -27 -93 -29 -214 -37 -45 -3 -88 -8 -95 -10 -8 -3
-32 -7 -54 -10 -42 -5 -213 -33 -255 -41 -195 -38 -276 -52 -281 -49 -3 1 -19
6 -35 8 -16 3 -40 8 -54 11 -77 17 -82 16 -149 -39 -61 -49 -130 -85 -132 -68
0 4 -3 23 -5 42 -9 63 -12 85 -13 97 -1 10 -80 -29 -168 -83 -28 -18 -41 -19
-99 -13 -36 5 -69 8 -72 8 -4 -1 -9 -1 -12 0 -3 1 -19 4 -37 5 -37 4 -53 -11
-71 -65 -17 -50 -1 -84 92 -197 42 -50 101 -133 132 -184 31 -51 72 -111 92
-133 116 -131 235 -258 367 -390 148 -149 198 -197 325 -305 118 -101 230
-227 230 -257 0 -8 19 -34 43 -58 23 -23 50 -55 60 -69 10 -15 22 -24 28 -21
14 9 36 -7 64 -45 l25 -34 75 77 c143 149 305 427 394 672 24 66 47 129 51
140 20 48 41 127 60 224 11 57 23 108 26 113 4 5 7 54 8 108 1 54 7 104 13
111 17 22 17 164 0 191 -8 13 -16 46 -17 73 -1 54 -1 57 2 95 2 35 -13 123
-23 136 -6 7 -37 10 -79 9 -39 -1 -88 1 -110 5 -30 6 -57 1 -112 -17z"/>
</g>
</svg>
